<mxfile host="Electron" modified="2023-08-14T14:06:02.936Z" agent="Mozilla/5.0 (Windows NT 10.0; Win64; x64) AppleWebKit/537.36 (KHTML, like Gecko) draw.io/21.6.8 Chrome/114.0.5735.289 Electron/25.5.0 Safari/537.36" etag="-RTz9UzIvX-QxUXtQkm9" version="21.6.8" type="device" pages="8">
  <diagram name="11.2" id="XVvnrDGoj_ZWUiOdlvGa">
    <mxGraphModel dx="880" dy="545" grid="1" gridSize="10" guides="1" tooltips="1" connect="1" arrows="1" fold="1" page="1" pageScale="1" pageWidth="1169" pageHeight="827" math="0" shadow="0">
      <root>
        <mxCell id="0" />
        <mxCell id="1" parent="0" />
        <mxCell id="IuzLm7R7FojZsHVuhBOD-1" value="4" style="align=right;verticalAlign=top;spacingRight=2;whiteSpace=wrap;html=1;" vertex="1" parent="1">
          <mxGeometry x="10" y="10" width="80" height="40" as="geometry" />
        </mxCell>
        <mxCell id="IuzLm7R7FojZsHVuhBOD-2" value="w: Wheel" style="text;html=1;strokeColor=none;fillColor=none;align=center;verticalAlign=middle;spacingLeft=4;spacingRight=4;overflow=hidden;rotatable=0;points=[[0,0.5],[1,0.5]];portConstraint=eastwest;resizeWidth=1;whiteSpace=wrap;" vertex="1" parent="IuzLm7R7FojZsHVuhBOD-1">
          <mxGeometry y="1" width="80" height="30" relative="1" as="geometry">
            <mxPoint y="-30" as="offset" />
          </mxGeometry>
        </mxCell>
        <mxCell id="IuzLm7R7FojZsHVuhBOD-3" value="e: Engine[1..2]" style="fontStyle=0;dashed=1;html=1;whiteSpace=wrap;" vertex="1" parent="1">
          <mxGeometry x="170" y="10" width="100" height="40" as="geometry" />
        </mxCell>
        <mxCell id="IuzLm7R7FojZsHVuhBOD-4" value="Figure 11.2 Parts and roles" style="text;html=1;align=left;verticalAlign=middle;resizable=0;points=[];autosize=1;strokeColor=none;fillColor=none;fontStyle=1" vertex="1" parent="1">
          <mxGeometry y="50" width="180" height="30" as="geometry" />
        </mxCell>
      </root>
    </mxGraphModel>
  </diagram>
  <diagram id="SVTfB0VtxcGHu6fkYha_" name="11.3">
    <mxGraphModel dx="880" dy="545" grid="1" gridSize="10" guides="1" tooltips="1" connect="1" arrows="1" fold="1" page="1" pageScale="1" pageWidth="1169" pageHeight="827" math="0" shadow="0">
      <root>
        <mxCell id="0" />
        <mxCell id="1" parent="0" />
        <mxCell id="q5Gj3FXim4SS6vxpHLWl-1" value="4" style="align=right;verticalAlign=top;spacingRight=2;whiteSpace=wrap;html=1;" vertex="1" parent="1">
          <mxGeometry x="10" y="10" width="100" height="60" as="geometry" />
        </mxCell>
        <mxCell id="q5Gj3FXim4SS6vxpHLWl-2" value="w: Wheel" style="text;html=1;strokeColor=none;fillColor=none;align=center;verticalAlign=middle;spacingLeft=4;spacingRight=4;overflow=hidden;rotatable=0;points=[[0,0.5],[1,0.5]];portConstraint=eastwest;resizeWidth=1;whiteSpace=wrap;" vertex="1" parent="q5Gj3FXim4SS6vxpHLWl-1">
          <mxGeometry y="1" width="100" height="30" relative="1" as="geometry">
            <mxPoint y="-30" as="offset" />
          </mxGeometry>
        </mxCell>
        <mxCell id="q5Gj3FXim4SS6vxpHLWl-3" value="e: Engine[1..2]" style="fontStyle=0;dashed=1;html=1;whiteSpace=wrap;" vertex="1" parent="1">
          <mxGeometry x="234" y="20" width="100" height="40" as="geometry" />
        </mxCell>
        <mxCell id="q5Gj3FXim4SS6vxpHLWl-4" value="Figure 11.3 Parts and roles with Ports" style="text;html=1;align=left;verticalAlign=middle;resizable=0;points=[];autosize=1;strokeColor=none;fillColor=none;fontStyle=1" vertex="1" parent="1">
          <mxGeometry y="80" width="240" height="30" as="geometry" />
        </mxCell>
        <mxCell id="q5Gj3FXim4SS6vxpHLWl-5" value="" style="html=1;rounded=0;" vertex="1" parent="1">
          <mxGeometry x="102" y="32.5" width="15" height="15" as="geometry" />
        </mxCell>
        <mxCell id="q5Gj3FXim4SS6vxpHLWl-6" value="" style="endArrow=none;html=1;rounded=0;align=center;verticalAlign=top;endFill=0;labelBackgroundColor=none;endSize=2;" edge="1" parent="1" source="q5Gj3FXim4SS6vxpHLWl-5" target="q5Gj3FXim4SS6vxpHLWl-7">
          <mxGeometry relative="1" as="geometry" />
        </mxCell>
        <mxCell id="q5Gj3FXim4SS6vxpHLWl-7" value="" style="ellipse;html=1;fontSize=11;align=center;fillColor=none;points=[];aspect=fixed;resizable=0;verticalAlign=bottom;labelPosition=center;verticalLabelPosition=top;flipH=1;" vertex="1" parent="1">
          <mxGeometry x="142" y="36" width="8" height="8" as="geometry" />
        </mxCell>
        <mxCell id="q5Gj3FXim4SS6vxpHLWl-8" value="" style="group;rotation=-180;" vertex="1" connectable="0" parent="1">
          <mxGeometry x="179" y="35" width="60" height="10" as="geometry" />
        </mxCell>
        <mxCell id="q5Gj3FXim4SS6vxpHLWl-9" value="" style="html=1;rounded=0;direction=south;rotation=-180;" vertex="1" parent="q5Gj3FXim4SS6vxpHLWl-8">
          <mxGeometry x="50" width="10" height="10" as="geometry" />
        </mxCell>
        <mxCell id="q5Gj3FXim4SS6vxpHLWl-10" value="" style="endArrow=none;html=1;rounded=0;align=center;verticalAlign=top;endFill=0;labelBackgroundColor=none;endSize=2;" edge="1" parent="q5Gj3FXim4SS6vxpHLWl-8" source="q5Gj3FXim4SS6vxpHLWl-11" target="q5Gj3FXim4SS6vxpHLWl-9">
          <mxGeometry relative="1" as="geometry" />
        </mxCell>
        <mxCell id="q5Gj3FXim4SS6vxpHLWl-11" value="" style="shape=requiredInterface;html=1;fontSize=11;align=center;fillColor=none;points=[];aspect=fixed;resizable=0;verticalAlign=bottom;labelPosition=center;verticalLabelPosition=top;flipH=1;rotation=-180;" vertex="1" parent="q5Gj3FXim4SS6vxpHLWl-8">
          <mxGeometry width="5" height="10" as="geometry" />
        </mxCell>
      </root>
    </mxGraphModel>
  </diagram>
  <diagram id="8c-e_6h1UWA4Mi_T_jbU" name="11.4">
    <mxGraphModel dx="880" dy="545" grid="1" gridSize="10" guides="1" tooltips="1" connect="1" arrows="1" fold="1" page="1" pageScale="1" pageWidth="1169" pageHeight="827" math="0" shadow="0">
      <root>
        <mxCell id="0" />
        <mxCell id="1" parent="0" />
        <mxCell id="d3TlcEU0ORTqF1Guxyw0-1" value="4" style="align=right;verticalAlign=top;spacingRight=2;whiteSpace=wrap;html=1;" vertex="1" parent="1">
          <mxGeometry x="10" y="10" width="100" height="60" as="geometry" />
        </mxCell>
        <mxCell id="d3TlcEU0ORTqF1Guxyw0-2" value="w: Wheel" style="text;html=1;strokeColor=none;fillColor=none;align=center;verticalAlign=middle;spacingLeft=4;spacingRight=4;overflow=hidden;rotatable=0;points=[[0,0.5],[1,0.5]];portConstraint=eastwest;resizeWidth=1;whiteSpace=wrap;" vertex="1" parent="d3TlcEU0ORTqF1Guxyw0-1">
          <mxGeometry y="1" width="100" height="30" relative="1" as="geometry">
            <mxPoint y="-30" as="offset" />
          </mxGeometry>
        </mxCell>
        <mxCell id="d3TlcEU0ORTqF1Guxyw0-3" value="e: Engine[1..2]" style="fontStyle=0;dashed=1;html=1;whiteSpace=wrap;" vertex="1" parent="1">
          <mxGeometry x="234" y="20" width="100" height="40" as="geometry" />
        </mxCell>
        <mxCell id="d3TlcEU0ORTqF1Guxyw0-4" value="" style="html=1;rounded=0;" vertex="1" parent="1">
          <mxGeometry x="102" y="35" width="10" height="10" as="geometry" />
        </mxCell>
        <mxCell id="d3TlcEU0ORTqF1Guxyw0-5" value="" style="endArrow=none;html=1;rounded=0;align=center;verticalAlign=top;endFill=0;labelBackgroundColor=none;endSize=2;" edge="1" parent="1" source="d3TlcEU0ORTqF1Guxyw0-27">
          <mxGeometry relative="1" as="geometry">
            <mxPoint x="130" y="20" as="targetPoint" />
          </mxGeometry>
        </mxCell>
        <mxCell id="d3TlcEU0ORTqF1Guxyw0-6" value="4" style="align=right;verticalAlign=top;spacingRight=2;whiteSpace=wrap;html=1;" vertex="1" parent="1">
          <mxGeometry x="10" y="90" width="100" height="60" as="geometry" />
        </mxCell>
        <mxCell id="d3TlcEU0ORTqF1Guxyw0-7" value="w: Wheel" style="text;html=1;strokeColor=none;fillColor=none;align=center;verticalAlign=middle;spacingLeft=4;spacingRight=4;overflow=hidden;rotatable=0;points=[[0,0.5],[1,0.5]];portConstraint=eastwest;resizeWidth=1;whiteSpace=wrap;" vertex="1" parent="d3TlcEU0ORTqF1Guxyw0-6">
          <mxGeometry y="1" width="100" height="30" relative="1" as="geometry">
            <mxPoint y="-30" as="offset" />
          </mxGeometry>
        </mxCell>
        <mxCell id="d3TlcEU0ORTqF1Guxyw0-8" value="e: Engine[1..2]" style="fontStyle=0;dashed=1;html=1;whiteSpace=wrap;" vertex="1" parent="1">
          <mxGeometry x="234" y="100" width="100" height="40" as="geometry" />
        </mxCell>
        <mxCell id="d3TlcEU0ORTqF1Guxyw0-9" value="" style="html=1;rounded=0;" vertex="1" parent="1">
          <mxGeometry x="102" y="115" width="10" height="10" as="geometry" />
        </mxCell>
        <mxCell id="d3TlcEU0ORTqF1Guxyw0-10" value="" style="endArrow=none;html=1;rounded=0;align=center;verticalAlign=top;endFill=0;labelBackgroundColor=none;endSize=2;" edge="1" parent="1" source="d3TlcEU0ORTqF1Guxyw0-9" target="d3TlcEU0ORTqF1Guxyw0-11">
          <mxGeometry relative="1" as="geometry" />
        </mxCell>
        <mxCell id="d3TlcEU0ORTqF1Guxyw0-11" value="" style="ellipse;html=1;fontSize=11;align=center;fillColor=none;points=[];aspect=fixed;resizable=0;verticalAlign=bottom;labelPosition=center;verticalLabelPosition=top;flipH=1;" vertex="1" parent="1">
          <mxGeometry x="142" y="116" width="8" height="8" as="geometry" />
        </mxCell>
        <mxCell id="d3TlcEU0ORTqF1Guxyw0-12" value="4" style="align=right;verticalAlign=top;spacingRight=2;whiteSpace=wrap;html=1;" vertex="1" parent="1">
          <mxGeometry x="10" y="170" width="100" height="60" as="geometry" />
        </mxCell>
        <mxCell id="d3TlcEU0ORTqF1Guxyw0-13" value="w: Wheel" style="text;html=1;strokeColor=none;fillColor=none;align=center;verticalAlign=middle;spacingLeft=4;spacingRight=4;overflow=hidden;rotatable=0;points=[[0,0.5],[1,0.5]];portConstraint=eastwest;resizeWidth=1;whiteSpace=wrap;" vertex="1" parent="d3TlcEU0ORTqF1Guxyw0-12">
          <mxGeometry y="1" width="100" height="30" relative="1" as="geometry">
            <mxPoint y="-30" as="offset" />
          </mxGeometry>
        </mxCell>
        <mxCell id="d3TlcEU0ORTqF1Guxyw0-14" value="e: Engine[1..2]" style="fontStyle=0;dashed=1;html=1;whiteSpace=wrap;" vertex="1" parent="1">
          <mxGeometry x="234" y="180" width="100" height="40" as="geometry" />
        </mxCell>
        <mxCell id="d3TlcEU0ORTqF1Guxyw0-15" value="" style="html=1;rounded=0;" vertex="1" parent="1">
          <mxGeometry x="102" y="195" width="10" height="10" as="geometry" />
        </mxCell>
        <mxCell id="d3TlcEU0ORTqF1Guxyw0-16" value="" style="endArrow=none;html=1;rounded=0;align=center;verticalAlign=top;endFill=0;labelBackgroundColor=none;endSize=2;" edge="1" parent="1" source="d3TlcEU0ORTqF1Guxyw0-15" target="d3TlcEU0ORTqF1Guxyw0-17">
          <mxGeometry relative="1" as="geometry" />
        </mxCell>
        <mxCell id="d3TlcEU0ORTqF1Guxyw0-17" value="" style="ellipse;html=1;fontSize=11;align=center;fillColor=none;points=[];aspect=fixed;resizable=0;verticalAlign=bottom;labelPosition=center;verticalLabelPosition=top;flipH=1;" vertex="1" parent="1">
          <mxGeometry x="172" y="196" width="8" height="8" as="geometry" />
        </mxCell>
        <mxCell id="d3TlcEU0ORTqF1Guxyw0-18" value="" style="group;rotation=-180;" vertex="1" connectable="0" parent="1">
          <mxGeometry x="179" y="195" width="60" height="10" as="geometry" />
        </mxCell>
        <mxCell id="d3TlcEU0ORTqF1Guxyw0-19" value="" style="html=1;rounded=0;direction=south;rotation=-180;" vertex="1" parent="d3TlcEU0ORTqF1Guxyw0-18">
          <mxGeometry x="50" width="10" height="10" as="geometry" />
        </mxCell>
        <mxCell id="d3TlcEU0ORTqF1Guxyw0-20" value="" style="endArrow=none;html=1;rounded=0;align=center;verticalAlign=top;endFill=0;labelBackgroundColor=none;endSize=2;" edge="1" parent="d3TlcEU0ORTqF1Guxyw0-18" source="d3TlcEU0ORTqF1Guxyw0-21" target="d3TlcEU0ORTqF1Guxyw0-19">
          <mxGeometry relative="1" as="geometry" />
        </mxCell>
        <mxCell id="d3TlcEU0ORTqF1Guxyw0-21" value="" style="shape=requiredInterface;html=1;fontSize=11;align=center;fillColor=none;points=[];aspect=fixed;resizable=0;verticalAlign=bottom;labelPosition=center;verticalLabelPosition=top;flipH=1;rotation=-180;" vertex="1" parent="d3TlcEU0ORTqF1Guxyw0-18">
          <mxGeometry width="5" height="10" as="geometry" />
        </mxCell>
        <mxCell id="d3TlcEU0ORTqF1Guxyw0-22" value="" style="endArrow=none;html=1;rounded=0;" edge="1" parent="1" target="d3TlcEU0ORTqF1Guxyw0-25">
          <mxGeometry width="50" height="50" relative="1" as="geometry">
            <mxPoint x="150" y="120" as="sourcePoint" />
            <mxPoint x="190" y="120" as="targetPoint" />
          </mxGeometry>
        </mxCell>
        <mxCell id="d3TlcEU0ORTqF1Guxyw0-23" value="" style="html=1;rounded=0;direction=south;rotation=-180;" vertex="1" parent="1">
          <mxGeometry x="229" y="115" width="10" height="10" as="geometry" />
        </mxCell>
        <mxCell id="d3TlcEU0ORTqF1Guxyw0-24" value="" style="endArrow=none;html=1;rounded=0;align=center;verticalAlign=top;endFill=0;labelBackgroundColor=none;endSize=2;" edge="1" parent="1" target="d3TlcEU0ORTqF1Guxyw0-23">
          <mxGeometry relative="1" as="geometry">
            <mxPoint x="200" y="120" as="sourcePoint" />
          </mxGeometry>
        </mxCell>
        <mxCell id="d3TlcEU0ORTqF1Guxyw0-25" value="" style="shape=requiredInterface;html=1;fontSize=11;align=center;fillColor=none;points=[];aspect=fixed;resizable=0;verticalAlign=bottom;labelPosition=center;verticalLabelPosition=top;flipH=1;rotation=-180;" vertex="1" parent="1">
          <mxGeometry x="195" y="115" width="5" height="10" as="geometry" />
        </mxCell>
        <mxCell id="d3TlcEU0ORTqF1Guxyw0-26" value="" style="endArrow=none;html=1;rounded=0;align=center;verticalAlign=top;endFill=0;labelBackgroundColor=none;endSize=2;" edge="1" parent="1" source="d3TlcEU0ORTqF1Guxyw0-4" target="d3TlcEU0ORTqF1Guxyw0-27">
          <mxGeometry relative="1" as="geometry">
            <mxPoint x="112" y="36" as="sourcePoint" />
            <mxPoint x="130" y="20" as="targetPoint" />
          </mxGeometry>
        </mxCell>
        <mxCell id="d3TlcEU0ORTqF1Guxyw0-27" value="" style="ellipse;html=1;fontSize=11;align=center;fillColor=none;points=[];aspect=fixed;resizable=0;verticalAlign=bottom;labelPosition=center;verticalLabelPosition=top;flipH=1;" vertex="1" parent="1">
          <mxGeometry x="130" y="12" width="8" height="8" as="geometry" />
        </mxCell>
        <mxCell id="d3TlcEU0ORTqF1Guxyw0-28" value="" style="html=1;rounded=0;direction=south;rotation=-180;" vertex="1" parent="1">
          <mxGeometry x="229" y="35" width="10" height="10" as="geometry" />
        </mxCell>
        <mxCell id="d3TlcEU0ORTqF1Guxyw0-29" value="" style="endArrow=none;html=1;rounded=0;align=center;verticalAlign=top;endFill=0;labelBackgroundColor=none;endSize=2;" edge="1" parent="1" target="d3TlcEU0ORTqF1Guxyw0-28">
          <mxGeometry relative="1" as="geometry">
            <mxPoint x="210" y="20" as="sourcePoint" />
          </mxGeometry>
        </mxCell>
        <mxCell id="d3TlcEU0ORTqF1Guxyw0-30" value="" style="shape=requiredInterface;html=1;fontSize=11;align=center;fillColor=none;points=[];aspect=fixed;resizable=0;verticalAlign=bottom;labelPosition=center;verticalLabelPosition=top;flipH=1;rotation=-135;" vertex="1" parent="1">
          <mxGeometry x="205" y="13" width="5" height="10" as="geometry" />
        </mxCell>
        <mxCell id="d3TlcEU0ORTqF1Guxyw0-31" value="" style="endArrow=none;html=1;rounded=0;exitX=1;exitY=0.5;exitDx=0;exitDy=0;entryX=0.5;entryY=0;entryDx=0;entryDy=0;" edge="1" parent="1" source="d3TlcEU0ORTqF1Guxyw0-4" target="d3TlcEU0ORTqF1Guxyw0-28">
          <mxGeometry width="50" height="50" relative="1" as="geometry">
            <mxPoint x="160" y="160" as="sourcePoint" />
            <mxPoint x="210" y="110" as="targetPoint" />
          </mxGeometry>
        </mxCell>
        <mxCell id="d3TlcEU0ORTqF1Guxyw0-32" value="Figure 11.4 Alternative notations for connecting parts and roles with Ports" style="text;html=1;align=left;verticalAlign=middle;resizable=0;points=[];autosize=1;strokeColor=none;fillColor=none;fontStyle=1" vertex="1" parent="1">
          <mxGeometry y="240" width="450" height="30" as="geometry" />
        </mxCell>
      </root>
    </mxGraphModel>
  </diagram>
  <diagram id="-c5FXiz8il6Od2Yn8fCc" name="11.5">
    <mxGraphModel dx="880" dy="545" grid="1" gridSize="10" guides="1" tooltips="1" connect="1" arrows="1" fold="1" page="1" pageScale="1" pageWidth="1169" pageHeight="827" math="0" shadow="0">
      <root>
        <mxCell id="0" />
        <mxCell id="1" parent="0" />
        <mxCell id="4Qap--Rnc-XsVbN5VdVi-1" style="rounded=0;orthogonalLoop=1;jettySize=auto;html=1;exitX=0.25;exitY=1;exitDx=0;exitDy=0;endArrow=none;endFill=0;startArrow=diamondThin;startFill=1;sourcePerimeterSpacing=0;startSize=12;" edge="1" parent="1" source="4Qap--Rnc-XsVbN5VdVi-4" target="4Qap--Rnc-XsVbN5VdVi-8">
          <mxGeometry relative="1" as="geometry" />
        </mxCell>
        <mxCell id="4Qap--Rnc-XsVbN5VdVi-2" value="rear" style="edgeLabel;html=1;align=center;verticalAlign=middle;resizable=0;points=[];" vertex="1" connectable="0" parent="4Qap--Rnc-XsVbN5VdVi-1">
          <mxGeometry x="0.6514" y="2" relative="1" as="geometry">
            <mxPoint x="-22" y="-1" as="offset" />
          </mxGeometry>
        </mxCell>
        <mxCell id="4Qap--Rnc-XsVbN5VdVi-3" value="2" style="edgeLabel;html=1;align=center;verticalAlign=middle;resizable=0;points=[];" vertex="1" connectable="0" parent="4Qap--Rnc-XsVbN5VdVi-1">
          <mxGeometry x="0.4" relative="1" as="geometry">
            <mxPoint x="-5" y="17" as="offset" />
          </mxGeometry>
        </mxCell>
        <mxCell id="4Qap--Rnc-XsVbN5VdVi-4" value="Car" style="fontStyle=0;html=1;whiteSpace=wrap;" vertex="1" parent="1">
          <mxGeometry x="120" y="10" width="40" height="30" as="geometry" />
        </mxCell>
        <mxCell id="4Qap--Rnc-XsVbN5VdVi-5" value="Axle" style="edgeStyle=orthogonalEdgeStyle;rounded=0;orthogonalLoop=1;jettySize=auto;html=1;exitX=1;exitY=0.5;exitDx=0;exitDy=0;entryX=0;entryY=0.5;entryDx=0;entryDy=0;endArrow=none;endFill=0;verticalAlign=bottom;" edge="1" parent="1" source="4Qap--Rnc-XsVbN5VdVi-8" target="4Qap--Rnc-XsVbN5VdVi-12">
          <mxGeometry relative="1" as="geometry" />
        </mxCell>
        <mxCell id="4Qap--Rnc-XsVbN5VdVi-6" value="*" style="edgeLabel;html=1;align=center;verticalAlign=middle;resizable=0;points=[];" vertex="1" connectable="0" parent="4Qap--Rnc-XsVbN5VdVi-5">
          <mxGeometry x="-0.7375" relative="1" as="geometry">
            <mxPoint x="-5" y="8" as="offset" />
          </mxGeometry>
        </mxCell>
        <mxCell id="4Qap--Rnc-XsVbN5VdVi-7" value="*" style="edgeLabel;html=1;align=center;verticalAlign=middle;resizable=0;points=[];" vertex="1" connectable="0" parent="4Qap--Rnc-XsVbN5VdVi-5">
          <mxGeometry x="0.725" y="2" relative="1" as="geometry">
            <mxPoint x="-3" y="11" as="offset" />
          </mxGeometry>
        </mxCell>
        <mxCell id="4Qap--Rnc-XsVbN5VdVi-8" value="Wheel" style="fontStyle=0;html=1;whiteSpace=wrap;" vertex="1" parent="1">
          <mxGeometry y="130" width="60" height="30" as="geometry" />
        </mxCell>
        <mxCell id="4Qap--Rnc-XsVbN5VdVi-9" style="rounded=0;orthogonalLoop=1;jettySize=auto;html=1;exitX=0.25;exitY=0;exitDx=0;exitDy=0;entryX=0.75;entryY=1;entryDx=0;entryDy=0;endArrow=none;endFill=0;" edge="1" parent="1" source="4Qap--Rnc-XsVbN5VdVi-12" target="4Qap--Rnc-XsVbN5VdVi-4">
          <mxGeometry relative="1" as="geometry" />
        </mxCell>
        <mxCell id="4Qap--Rnc-XsVbN5VdVi-10" value="1" style="edgeLabel;html=1;align=center;verticalAlign=middle;resizable=0;points=[];" vertex="1" connectable="0" parent="4Qap--Rnc-XsVbN5VdVi-9">
          <mxGeometry x="-0.4858" relative="1" as="geometry">
            <mxPoint x="-5" y="13" as="offset" />
          </mxGeometry>
        </mxCell>
        <mxCell id="4Qap--Rnc-XsVbN5VdVi-11" value="e" style="edgeLabel;html=1;align=center;verticalAlign=middle;resizable=0;points=[];" vertex="1" connectable="0" parent="4Qap--Rnc-XsVbN5VdVi-9">
          <mxGeometry x="-0.3253" y="-1" relative="1" as="geometry">
            <mxPoint x="27" y="10" as="offset" />
          </mxGeometry>
        </mxCell>
        <mxCell id="4Qap--Rnc-XsVbN5VdVi-12" value="Engine" style="fontStyle=0;html=1;whiteSpace=wrap;" vertex="1" parent="1">
          <mxGeometry x="220" y="130" width="60" height="30" as="geometry" />
        </mxCell>
        <mxCell id="4Qap--Rnc-XsVbN5VdVi-13" value="Figure 11.5 Associations compared with Connectors" style="text;html=1;align=left;verticalAlign=middle;resizable=0;points=[];autosize=1;strokeColor=none;fillColor=none;fontStyle=1" vertex="1" parent="1">
          <mxGeometry y="160" width="320" height="30" as="geometry" />
        </mxCell>
        <mxCell id="4Qap--Rnc-XsVbN5VdVi-14" value="&lt;b&gt;Car&lt;/b&gt;" style="swimlane;fontStyle=0;align=center;verticalAlign=middle;childLayout=stackLayout;horizontal=1;startSize=30;horizontalStack=0;resizeParent=1;resizeParentMax=0;resizeLast=0;collapsible=0;marginBottom=0;html=1;whiteSpace=wrap;" vertex="1" parent="1">
          <mxGeometry x="360" y="10" width="400" height="152" as="geometry" />
        </mxCell>
        <mxCell id="4Qap--Rnc-XsVbN5VdVi-15" value="internal structure" style="html=1;strokeColor=none;fillColor=none;align=center;verticalAlign=middle;spacingLeft=4;spacingRight=4;rotatable=0;points=[[0,0.5],[1,0.5]];resizeWidth=1;whiteSpace=wrap;" vertex="1" parent="4Qap--Rnc-XsVbN5VdVi-14">
          <mxGeometry y="30" width="400" height="20" as="geometry" />
        </mxCell>
        <mxCell id="4Qap--Rnc-XsVbN5VdVi-16" value="" style="swimlane;fontStyle=1;align=center;verticalAlign=top;horizontal=1;startSize=0;collapsible=0;marginBottom=0;html=1;strokeColor=none;fillColor=none;whiteSpace=wrap;" vertex="1" parent="4Qap--Rnc-XsVbN5VdVi-14">
          <mxGeometry y="50" width="400" height="102" as="geometry" />
        </mxCell>
        <mxCell id="4Qap--Rnc-XsVbN5VdVi-17" value="a : Axle" style="edgeStyle=orthogonalEdgeStyle;rounded=0;orthogonalLoop=1;jettySize=auto;html=1;entryX=0;entryY=0.5;entryDx=0;entryDy=0;endArrow=none;endFill=0;verticalAlign=bottom;" edge="1" parent="4Qap--Rnc-XsVbN5VdVi-16" source="4Qap--Rnc-XsVbN5VdVi-20" target="4Qap--Rnc-XsVbN5VdVi-21">
          <mxGeometry relative="1" as="geometry" />
        </mxCell>
        <mxCell id="4Qap--Rnc-XsVbN5VdVi-18" value="2" style="edgeLabel;html=1;align=center;verticalAlign=middle;resizable=0;points=[];" vertex="1" connectable="0" parent="4Qap--Rnc-XsVbN5VdVi-17">
          <mxGeometry x="-0.3231" y="1" relative="1" as="geometry">
            <mxPoint x="-30" y="10" as="offset" />
          </mxGeometry>
        </mxCell>
        <mxCell id="4Qap--Rnc-XsVbN5VdVi-19" value="1" style="edgeLabel;html=1;align=center;verticalAlign=middle;resizable=0;points=[];" vertex="1" connectable="0" parent="4Qap--Rnc-XsVbN5VdVi-17">
          <mxGeometry x="0.6" y="-2" relative="1" as="geometry">
            <mxPoint x="8" y="8" as="offset" />
          </mxGeometry>
        </mxCell>
        <mxCell id="4Qap--Rnc-XsVbN5VdVi-20" value="rear : Wheel [2]" style="html=1;align=center;verticalAlign=middle;rotatable=0;whiteSpace=wrap;" vertex="1" parent="4Qap--Rnc-XsVbN5VdVi-16">
          <mxGeometry width="110" height="30" relative="1" as="geometry">
            <mxPoint x="40" y="36" as="offset" />
          </mxGeometry>
        </mxCell>
        <mxCell id="4Qap--Rnc-XsVbN5VdVi-21" value="e : Engine" style="fontStyle=0;dashed=1;html=1;whiteSpace=wrap;verticalAlign=middle;" vertex="1" parent="4Qap--Rnc-XsVbN5VdVi-16">
          <mxGeometry x="280" y="36" width="80" height="30" as="geometry" />
        </mxCell>
      </root>
    </mxGraphModel>
  </diagram>
  <diagram id="R4JcTxZhRYMDaEMmGBST" name="11.6">
    <mxGraphModel dx="880" dy="545" grid="1" gridSize="10" guides="1" tooltips="1" connect="1" arrows="1" fold="1" page="1" pageScale="1" pageWidth="1169" pageHeight="827" math="0" shadow="0">
      <root>
        <mxCell id="0" />
        <mxCell id="1" parent="0" />
        <mxCell id="0i4GypEjaIf8XbbTWaWz-1" value="&lt;b&gt;C&lt;/b&gt;" style="swimlane;fontStyle=0;align=center;verticalAlign=middle;childLayout=stackLayout;horizontal=1;startSize=30;horizontalStack=0;resizeParent=1;resizeParentMax=0;resizeLast=0;collapsible=0;marginBottom=0;html=1;whiteSpace=wrap;" vertex="1" parent="1">
          <mxGeometry x="10" y="10" width="360" height="110" as="geometry" />
        </mxCell>
        <mxCell id="0i4GypEjaIf8XbbTWaWz-5" value="" style="swimlane;fontStyle=1;align=center;verticalAlign=top;horizontal=1;startSize=0;collapsible=0;marginBottom=0;html=1;strokeColor=none;fillColor=none;whiteSpace=wrap;" vertex="1" parent="0i4GypEjaIf8XbbTWaWz-1">
          <mxGeometry y="30" width="360" height="80" as="geometry" />
        </mxCell>
        <mxCell id="0i4GypEjaIf8XbbTWaWz-6" value="a: A" style="html=1;align=center;verticalAlign=middle;rotatable=0;whiteSpace=wrap;" vertex="1" parent="0i4GypEjaIf8XbbTWaWz-5">
          <mxGeometry width="80" height="40" relative="1" as="geometry">
            <mxPoint x="30" y="20" as="offset" />
          </mxGeometry>
        </mxCell>
        <mxCell id="0i4GypEjaIf8XbbTWaWz-7" value="b: B" style="html=1;align=center;verticalAlign=middle;rotatable=0;whiteSpace=wrap;" vertex="1" parent="0i4GypEjaIf8XbbTWaWz-5">
          <mxGeometry width="80" height="40" relative="1" as="geometry">
            <mxPoint x="250" y="20" as="offset" />
          </mxGeometry>
        </mxCell>
        <mxCell id="0i4GypEjaIf8XbbTWaWz-2" style="edgeStyle=orthogonalEdgeStyle;rounded=0;orthogonalLoop=1;jettySize=auto;html=1;exitX=1;exitY=0.5;exitDx=0;exitDy=0;entryX=0;entryY=0.5;entryDx=0;entryDy=0;endArrow=none;endFill=0;" edge="1" parent="0i4GypEjaIf8XbbTWaWz-5" source="0i4GypEjaIf8XbbTWaWz-6" target="0i4GypEjaIf8XbbTWaWz-7">
          <mxGeometry relative="1" as="geometry" />
        </mxCell>
        <mxCell id="0i4GypEjaIf8XbbTWaWz-3" value="2" style="edgeLabel;html=1;align=center;verticalAlign=middle;resizable=0;points=[];" vertex="1" connectable="0" parent="0i4GypEjaIf8XbbTWaWz-2">
          <mxGeometry x="-0.7143" y="-1" relative="1" as="geometry">
            <mxPoint x="-8" y="9" as="offset" />
          </mxGeometry>
        </mxCell>
        <mxCell id="0i4GypEjaIf8XbbTWaWz-4" value="2" style="edgeLabel;html=1;align=center;verticalAlign=middle;resizable=0;points=[];" vertex="1" connectable="0" parent="0i4GypEjaIf8XbbTWaWz-2">
          <mxGeometry x="0.7143" relative="1" as="geometry">
            <mxPoint x="3" y="10" as="offset" />
          </mxGeometry>
        </mxCell>
        <mxCell id="0i4GypEjaIf8XbbTWaWz-8" value="2" style="text;html=1;align=center;verticalAlign=middle;resizable=0;points=[];autosize=1;strokeColor=none;fillColor=none;" vertex="1" parent="1">
          <mxGeometry x="95" y="54" width="30" height="30" as="geometry" />
        </mxCell>
        <mxCell id="0i4GypEjaIf8XbbTWaWz-9" value="2" style="text;html=1;align=center;verticalAlign=middle;resizable=0;points=[];autosize=1;strokeColor=none;fillColor=none;" vertex="1" parent="1">
          <mxGeometry x="317" y="54" width="30" height="30" as="geometry" />
        </mxCell>
        <mxCell id="0i4GypEjaIf8XbbTWaWz-10" value="&lt;b&gt;&lt;u&gt;:C&lt;/u&gt;&lt;/b&gt;" style="swimlane;fontStyle=0;align=center;verticalAlign=middle;childLayout=stackLayout;horizontal=1;startSize=30;horizontalStack=0;resizeParent=1;resizeParentMax=0;resizeLast=0;collapsible=0;marginBottom=0;html=1;whiteSpace=wrap;" vertex="1" parent="1">
          <mxGeometry x="10" y="150" width="360" height="180" as="geometry" />
        </mxCell>
        <mxCell id="0i4GypEjaIf8XbbTWaWz-12" value="" style="swimlane;fontStyle=1;align=center;verticalAlign=top;horizontal=1;startSize=0;collapsible=0;marginBottom=0;html=1;strokeColor=none;fillColor=none;whiteSpace=wrap;" vertex="1" parent="0i4GypEjaIf8XbbTWaWz-10">
          <mxGeometry y="30" width="360" height="150" as="geometry" />
        </mxCell>
        <mxCell id="0i4GypEjaIf8XbbTWaWz-13" value="&lt;u&gt;/a: A&lt;/u&gt;" style="html=1;align=center;verticalAlign=middle;rotatable=0;whiteSpace=wrap;" vertex="1" parent="0i4GypEjaIf8XbbTWaWz-12">
          <mxGeometry width="80" height="40" relative="1" as="geometry">
            <mxPoint x="30" y="20" as="offset" />
          </mxGeometry>
        </mxCell>
        <mxCell id="0i4GypEjaIf8XbbTWaWz-14" value="&lt;u&gt;/b: B&lt;/u&gt;" style="html=1;align=center;verticalAlign=middle;rotatable=0;whiteSpace=wrap;" vertex="1" parent="0i4GypEjaIf8XbbTWaWz-12">
          <mxGeometry width="80" height="40" relative="1" as="geometry">
            <mxPoint x="250" y="20" as="offset" />
          </mxGeometry>
        </mxCell>
        <mxCell id="0i4GypEjaIf8XbbTWaWz-15" style="edgeStyle=orthogonalEdgeStyle;rounded=0;orthogonalLoop=1;jettySize=auto;html=1;exitX=1;exitY=0.5;exitDx=0;exitDy=0;entryX=0;entryY=0.5;entryDx=0;entryDy=0;endArrow=none;endFill=0;" edge="1" parent="0i4GypEjaIf8XbbTWaWz-12" source="0i4GypEjaIf8XbbTWaWz-13" target="0i4GypEjaIf8XbbTWaWz-14">
          <mxGeometry relative="1" as="geometry" />
        </mxCell>
        <mxCell id="0i4GypEjaIf8XbbTWaWz-16" value="&lt;u&gt;/b: B&lt;/u&gt;" style="html=1;align=center;verticalAlign=middle;rotatable=0;whiteSpace=wrap;" vertex="1" parent="0i4GypEjaIf8XbbTWaWz-12">
          <mxGeometry width="80" height="40" relative="1" as="geometry">
            <mxPoint x="250" y="90" as="offset" />
          </mxGeometry>
        </mxCell>
        <mxCell id="0i4GypEjaIf8XbbTWaWz-17" value="&lt;u&gt;/a: A&lt;/u&gt;" style="html=1;align=center;verticalAlign=middle;rotatable=0;whiteSpace=wrap;" vertex="1" parent="0i4GypEjaIf8XbbTWaWz-12">
          <mxGeometry width="80" height="40" relative="1" as="geometry">
            <mxPoint x="30" y="90" as="offset" />
          </mxGeometry>
        </mxCell>
        <mxCell id="0i4GypEjaIf8XbbTWaWz-18" style="edgeStyle=orthogonalEdgeStyle;rounded=0;orthogonalLoop=1;jettySize=auto;html=1;exitX=1;exitY=0.5;exitDx=0;exitDy=0;entryX=0;entryY=0.5;entryDx=0;entryDy=0;endArrow=none;endFill=0;" edge="1" parent="0i4GypEjaIf8XbbTWaWz-12" source="0i4GypEjaIf8XbbTWaWz-17" target="0i4GypEjaIf8XbbTWaWz-16">
          <mxGeometry relative="1" as="geometry" />
        </mxCell>
        <mxCell id="0i4GypEjaIf8XbbTWaWz-11" style="rounded=0;orthogonalLoop=1;jettySize=auto;html=1;exitX=1;exitY=0.75;exitDx=0;exitDy=0;entryX=0;entryY=0.25;entryDx=0;entryDy=0;endArrow=none;endFill=0;" edge="1" parent="0i4GypEjaIf8XbbTWaWz-12" source="0i4GypEjaIf8XbbTWaWz-13" target="0i4GypEjaIf8XbbTWaWz-16">
          <mxGeometry relative="1" as="geometry" />
        </mxCell>
        <mxCell id="0i4GypEjaIf8XbbTWaWz-19" style="rounded=0;orthogonalLoop=1;jettySize=auto;html=1;exitX=1;exitY=0.25;exitDx=0;exitDy=0;entryX=0;entryY=0.75;entryDx=0;entryDy=0;endArrow=none;endFill=0;" edge="1" parent="0i4GypEjaIf8XbbTWaWz-12" source="0i4GypEjaIf8XbbTWaWz-17" target="0i4GypEjaIf8XbbTWaWz-14">
          <mxGeometry relative="1" as="geometry" />
        </mxCell>
        <mxCell id="0i4GypEjaIf8XbbTWaWz-20" value="Figure 11.6 &quot;Star&quot; Connector pattern" style="text;html=1;align=left;verticalAlign=middle;resizable=0;points=[];autosize=1;strokeColor=none;fillColor=none;fontStyle=1" vertex="1" parent="1">
          <mxGeometry x="10" y="330" width="230" height="30" as="geometry" />
        </mxCell>
      </root>
    </mxGraphModel>
  </diagram>
  <diagram id="5dRL0stiLqj3oLMn-BP5" name="11.7">
    <mxGraphModel dx="880" dy="545" grid="1" gridSize="10" guides="1" tooltips="1" connect="1" arrows="1" fold="1" page="1" pageScale="1" pageWidth="1169" pageHeight="827" math="0" shadow="0">
      <root>
        <mxCell id="0" />
        <mxCell id="1" parent="0" />
        <mxCell id="MPaUNyObh3iBGX3C5jXT-1" value="&lt;b&gt;C&lt;/b&gt;" style="swimlane;fontStyle=0;align=center;verticalAlign=middle;childLayout=stackLayout;horizontal=1;startSize=30;horizontalStack=0;resizeParent=1;resizeParentMax=0;resizeLast=0;collapsible=0;marginBottom=0;html=1;whiteSpace=wrap;" vertex="1" parent="1">
          <mxGeometry x="10" y="10" width="360" height="110" as="geometry" />
        </mxCell>
        <mxCell id="MPaUNyObh3iBGX3C5jXT-5" value="" style="swimlane;fontStyle=1;align=center;verticalAlign=top;horizontal=1;startSize=0;collapsible=0;marginBottom=0;html=1;strokeColor=none;fillColor=none;whiteSpace=wrap;" vertex="1" parent="MPaUNyObh3iBGX3C5jXT-1">
          <mxGeometry y="30" width="360" height="80" as="geometry" />
        </mxCell>
        <mxCell id="MPaUNyObh3iBGX3C5jXT-6" value="a: A" style="html=1;align=center;verticalAlign=middle;rotatable=0;whiteSpace=wrap;" vertex="1" parent="MPaUNyObh3iBGX3C5jXT-5">
          <mxGeometry width="80" height="40" relative="1" as="geometry">
            <mxPoint x="30" y="20" as="offset" />
          </mxGeometry>
        </mxCell>
        <mxCell id="MPaUNyObh3iBGX3C5jXT-7" value="b: B" style="html=1;align=center;verticalAlign=middle;rotatable=0;whiteSpace=wrap;" vertex="1" parent="MPaUNyObh3iBGX3C5jXT-5">
          <mxGeometry width="80" height="40" relative="1" as="geometry">
            <mxPoint x="250" y="20" as="offset" />
          </mxGeometry>
        </mxCell>
        <mxCell id="MPaUNyObh3iBGX3C5jXT-2" style="edgeStyle=orthogonalEdgeStyle;rounded=0;orthogonalLoop=1;jettySize=auto;html=1;exitX=1;exitY=0.5;exitDx=0;exitDy=0;entryX=0;entryY=0.5;entryDx=0;entryDy=0;endArrow=none;endFill=0;" edge="1" parent="MPaUNyObh3iBGX3C5jXT-5" source="MPaUNyObh3iBGX3C5jXT-6" target="MPaUNyObh3iBGX3C5jXT-7">
          <mxGeometry relative="1" as="geometry" />
        </mxCell>
        <mxCell id="MPaUNyObh3iBGX3C5jXT-3" value="1" style="edgeLabel;html=1;align=center;verticalAlign=middle;resizable=0;points=[];" vertex="1" connectable="0" parent="MPaUNyObh3iBGX3C5jXT-2">
          <mxGeometry x="-0.7143" y="-1" relative="1" as="geometry">
            <mxPoint x="-8" y="9" as="offset" />
          </mxGeometry>
        </mxCell>
        <mxCell id="MPaUNyObh3iBGX3C5jXT-4" value="1" style="edgeLabel;html=1;align=center;verticalAlign=middle;resizable=0;points=[];" vertex="1" connectable="0" parent="MPaUNyObh3iBGX3C5jXT-2">
          <mxGeometry x="0.7143" relative="1" as="geometry">
            <mxPoint x="3" y="10" as="offset" />
          </mxGeometry>
        </mxCell>
        <mxCell id="MPaUNyObh3iBGX3C5jXT-8" value="2" style="text;html=1;align=center;verticalAlign=middle;resizable=0;points=[];autosize=1;strokeColor=none;fillColor=none;" vertex="1" parent="1">
          <mxGeometry x="95" y="54" width="30" height="30" as="geometry" />
        </mxCell>
        <mxCell id="MPaUNyObh3iBGX3C5jXT-9" value="2" style="text;html=1;align=center;verticalAlign=middle;resizable=0;points=[];autosize=1;strokeColor=none;fillColor=none;" vertex="1" parent="1">
          <mxGeometry x="317" y="54" width="30" height="30" as="geometry" />
        </mxCell>
        <mxCell id="MPaUNyObh3iBGX3C5jXT-10" value="&lt;b&gt;&lt;u&gt;:C&lt;/u&gt;&lt;/b&gt;" style="swimlane;fontStyle=0;align=center;verticalAlign=middle;childLayout=stackLayout;horizontal=1;startSize=30;horizontalStack=0;resizeParent=1;resizeParentMax=0;resizeLast=0;collapsible=0;marginBottom=0;html=1;whiteSpace=wrap;" vertex="1" parent="1">
          <mxGeometry x="10" y="150" width="360" height="180" as="geometry" />
        </mxCell>
        <mxCell id="MPaUNyObh3iBGX3C5jXT-11" value="" style="swimlane;fontStyle=1;align=center;verticalAlign=top;horizontal=1;startSize=0;collapsible=0;marginBottom=0;html=1;strokeColor=none;fillColor=none;whiteSpace=wrap;" vertex="1" parent="MPaUNyObh3iBGX3C5jXT-10">
          <mxGeometry y="30" width="360" height="150" as="geometry" />
        </mxCell>
        <mxCell id="MPaUNyObh3iBGX3C5jXT-12" value="&lt;u&gt;/a: A&lt;/u&gt;" style="html=1;align=center;verticalAlign=middle;rotatable=0;whiteSpace=wrap;" vertex="1" parent="MPaUNyObh3iBGX3C5jXT-11">
          <mxGeometry width="80" height="40" relative="1" as="geometry">
            <mxPoint x="30" y="20" as="offset" />
          </mxGeometry>
        </mxCell>
        <mxCell id="MPaUNyObh3iBGX3C5jXT-13" value="&lt;u&gt;/b: B&lt;/u&gt;" style="html=1;align=center;verticalAlign=middle;rotatable=0;whiteSpace=wrap;" vertex="1" parent="MPaUNyObh3iBGX3C5jXT-11">
          <mxGeometry width="80" height="40" relative="1" as="geometry">
            <mxPoint x="250" y="20" as="offset" />
          </mxGeometry>
        </mxCell>
        <mxCell id="MPaUNyObh3iBGX3C5jXT-14" style="edgeStyle=orthogonalEdgeStyle;rounded=0;orthogonalLoop=1;jettySize=auto;html=1;exitX=1;exitY=0.5;exitDx=0;exitDy=0;entryX=0;entryY=0.5;entryDx=0;entryDy=0;endArrow=none;endFill=0;" edge="1" parent="MPaUNyObh3iBGX3C5jXT-11" source="MPaUNyObh3iBGX3C5jXT-12" target="MPaUNyObh3iBGX3C5jXT-13">
          <mxGeometry relative="1" as="geometry" />
        </mxCell>
        <mxCell id="MPaUNyObh3iBGX3C5jXT-15" value="&lt;u&gt;/b: B&lt;/u&gt;" style="html=1;align=center;verticalAlign=middle;rotatable=0;whiteSpace=wrap;" vertex="1" parent="MPaUNyObh3iBGX3C5jXT-11">
          <mxGeometry width="80" height="40" relative="1" as="geometry">
            <mxPoint x="250" y="90" as="offset" />
          </mxGeometry>
        </mxCell>
        <mxCell id="MPaUNyObh3iBGX3C5jXT-16" value="&lt;u&gt;/a: A&lt;/u&gt;" style="html=1;align=center;verticalAlign=middle;rotatable=0;whiteSpace=wrap;" vertex="1" parent="MPaUNyObh3iBGX3C5jXT-11">
          <mxGeometry width="80" height="40" relative="1" as="geometry">
            <mxPoint x="30" y="90" as="offset" />
          </mxGeometry>
        </mxCell>
        <mxCell id="MPaUNyObh3iBGX3C5jXT-17" style="edgeStyle=orthogonalEdgeStyle;rounded=0;orthogonalLoop=1;jettySize=auto;html=1;exitX=1;exitY=0.5;exitDx=0;exitDy=0;entryX=0;entryY=0.5;entryDx=0;entryDy=0;endArrow=none;endFill=0;" edge="1" parent="MPaUNyObh3iBGX3C5jXT-11" source="MPaUNyObh3iBGX3C5jXT-16" target="MPaUNyObh3iBGX3C5jXT-15">
          <mxGeometry relative="1" as="geometry" />
        </mxCell>
        <mxCell id="MPaUNyObh3iBGX3C5jXT-18" value="Figure 11.7 &quot;Array&quot; Connector pattern" style="text;html=1;align=left;verticalAlign=middle;resizable=0;points=[];autosize=1;strokeColor=none;fillColor=none;fontStyle=1" vertex="1" parent="1">
          <mxGeometry x="10" y="330" width="240" height="30" as="geometry" />
        </mxCell>
      </root>
    </mxGraphModel>
  </diagram>
  <diagram id="SO84Hi4b8FAlt9UBirl1" name="11.8">
    <mxGraphModel dx="880" dy="545" grid="1" gridSize="10" guides="1" tooltips="1" connect="1" arrows="1" fold="1" page="1" pageScale="1" pageWidth="1169" pageHeight="827" math="0" shadow="0">
      <root>
        <mxCell id="0" />
        <mxCell id="1" parent="0" />
        <mxCell id="p3hVJLcbJUiUCccAdTZC-1" value="«component»&lt;br&gt;&lt;b&gt;Order&lt;br&gt;&lt;/b&gt;" style="html=1;dropTarget=0;whiteSpace=wrap;labelBackgroundColor=none;" vertex="1" parent="1">
          <mxGeometry x="130" y="10" width="180" height="90" as="geometry" />
        </mxCell>
        <mxCell id="p3hVJLcbJUiUCccAdTZC-2" value="" style="shape=module;jettyWidth=8;jettyHeight=4;labelBackgroundColor=none;" vertex="1" parent="p3hVJLcbJUiUCccAdTZC-1">
          <mxGeometry x="1" width="20" height="20" relative="1" as="geometry">
            <mxPoint x="-27" y="7" as="offset" />
          </mxGeometry>
        </mxCell>
        <mxCell id="p3hVJLcbJUiUCccAdTZC-3" value="«component»&lt;br&gt;&lt;b&gt;Order&lt;br&gt;&lt;/b&gt;" style="html=1;dropTarget=0;whiteSpace=wrap;labelBackgroundColor=none;" vertex="1" parent="1">
          <mxGeometry x="130" y="130" width="180" height="90" as="geometry" />
        </mxCell>
        <mxCell id="p3hVJLcbJUiUCccAdTZC-4" value="" style="shape=module;jettyWidth=8;jettyHeight=4;labelBackgroundColor=none;" vertex="1" parent="p3hVJLcbJUiUCccAdTZC-3">
          <mxGeometry x="1" width="20" height="20" relative="1" as="geometry">
            <mxPoint x="-27" y="7" as="offset" />
          </mxGeometry>
        </mxCell>
        <mxCell id="p3hVJLcbJUiUCccAdTZC-5" value="" style="html=1;rounded=0;labelBackgroundColor=none;" vertex="1" parent="1">
          <mxGeometry x="125" y="28" width="10" height="10" as="geometry" />
        </mxCell>
        <mxCell id="p3hVJLcbJUiUCccAdTZC-6" value="" style="endArrow=none;html=1;rounded=0;align=center;verticalAlign=top;endFill=0;labelBackgroundColor=none;endSize=2;" edge="1" parent="1" source="p3hVJLcbJUiUCccAdTZC-5" target="p3hVJLcbJUiUCccAdTZC-7">
          <mxGeometry relative="1" as="geometry" />
        </mxCell>
        <mxCell id="p3hVJLcbJUiUCccAdTZC-7" value="OrderEntry" style="ellipse;html=1;fontSize=11;align=center;fillColor=none;points=[];aspect=fixed;resizable=0;verticalAlign=bottom;labelPosition=center;verticalLabelPosition=top;flipH=1;labelBackgroundColor=none;" vertex="1" parent="1">
          <mxGeometry x="65" y="30" width="8" height="8" as="geometry" />
        </mxCell>
        <mxCell id="p3hVJLcbJUiUCccAdTZC-8" value="" style="html=1;rounded=0;labelBackgroundColor=none;" vertex="1" parent="1">
          <mxGeometry x="125" y="170" width="10" height="10" as="geometry" />
        </mxCell>
        <mxCell id="p3hVJLcbJUiUCccAdTZC-9" value="" style="endArrow=none;html=1;rounded=0;align=center;verticalAlign=top;endFill=0;labelBackgroundColor=none;endSize=2;" edge="1" parent="1" source="p3hVJLcbJUiUCccAdTZC-8" target="p3hVJLcbJUiUCccAdTZC-10">
          <mxGeometry relative="1" as="geometry" />
        </mxCell>
        <mxCell id="p3hVJLcbJUiUCccAdTZC-10" value="OrderableItem" style="ellipse;html=1;fontSize=11;align=center;fillColor=none;points=[];aspect=fixed;resizable=0;verticalAlign=bottom;labelPosition=center;verticalLabelPosition=top;flipH=1;labelBackgroundColor=none;" vertex="1" parent="1">
          <mxGeometry x="65" y="172" width="8" height="8" as="geometry" />
        </mxCell>
        <mxCell id="p3hVJLcbJUiUCccAdTZC-11" value="" style="html=1;rounded=0;direction=south;labelBackgroundColor=none;" vertex="1" parent="1">
          <mxGeometry x="125" y="70" width="10" height="10" as="geometry" />
        </mxCell>
        <mxCell id="p3hVJLcbJUiUCccAdTZC-12" value="" style="endArrow=none;html=1;rounded=0;align=center;verticalAlign=top;endFill=0;labelBackgroundColor=none;endSize=2;" edge="1" parent="1" source="p3hVJLcbJUiUCccAdTZC-13" target="p3hVJLcbJUiUCccAdTZC-11">
          <mxGeometry relative="1" as="geometry" />
        </mxCell>
        <mxCell id="p3hVJLcbJUiUCccAdTZC-13" value="OrderableItem" style="shape=requiredInterface;html=1;fontSize=11;align=center;fillColor=none;points=[];aspect=fixed;resizable=0;verticalAlign=bottom;labelPosition=center;verticalLabelPosition=top;flipH=1;direction=west;labelBackgroundColor=none;" vertex="1" parent="1">
          <mxGeometry x="68" y="70" width="5" height="10" as="geometry" />
        </mxCell>
        <mxCell id="p3hVJLcbJUiUCccAdTZC-14" value="«component»&lt;br&gt;&lt;b&gt;Order&lt;br&gt;&lt;/b&gt;" style="html=1;dropTarget=0;whiteSpace=wrap;labelBackgroundColor=none;" vertex="1" parent="1">
          <mxGeometry x="424" y="10" width="180" height="90" as="geometry" />
        </mxCell>
        <mxCell id="p3hVJLcbJUiUCccAdTZC-15" value="" style="shape=module;jettyWidth=8;jettyHeight=4;labelBackgroundColor=none;" vertex="1" parent="p3hVJLcbJUiUCccAdTZC-14">
          <mxGeometry x="1" width="20" height="20" relative="1" as="geometry">
            <mxPoint x="-27" y="7" as="offset" />
          </mxGeometry>
        </mxCell>
        <mxCell id="p3hVJLcbJUiUCccAdTZC-16" value="«component»&lt;br&gt;&lt;b&gt;Order&lt;br&gt;&lt;/b&gt;" style="html=1;dropTarget=0;whiteSpace=wrap;labelBackgroundColor=none;" vertex="1" parent="1">
          <mxGeometry x="425" y="223" width="180" height="90" as="geometry" />
        </mxCell>
        <mxCell id="p3hVJLcbJUiUCccAdTZC-17" value="" style="shape=module;jettyWidth=8;jettyHeight=4;labelBackgroundColor=none;" vertex="1" parent="p3hVJLcbJUiUCccAdTZC-16">
          <mxGeometry x="1" width="20" height="20" relative="1" as="geometry">
            <mxPoint x="-27" y="7" as="offset" />
          </mxGeometry>
        </mxCell>
        <mxCell id="p3hVJLcbJUiUCccAdTZC-18" value="" style="html=1;rounded=0;labelBackgroundColor=none;" vertex="1" parent="1">
          <mxGeometry x="419" y="28" width="10" height="10" as="geometry" />
        </mxCell>
        <mxCell id="p3hVJLcbJUiUCccAdTZC-19" value="" style="endArrow=none;html=1;rounded=0;align=center;verticalAlign=top;endFill=0;labelBackgroundColor=none;endSize=2;" edge="1" parent="1" source="p3hVJLcbJUiUCccAdTZC-18" target="p3hVJLcbJUiUCccAdTZC-20">
          <mxGeometry relative="1" as="geometry" />
        </mxCell>
        <mxCell id="p3hVJLcbJUiUCccAdTZC-20" value="OrderEntry" style="ellipse;html=1;fontSize=11;align=center;fillColor=none;points=[];aspect=fixed;resizable=0;verticalAlign=bottom;labelPosition=center;verticalLabelPosition=top;flipH=1;labelBackgroundColor=none;" vertex="1" parent="1">
          <mxGeometry x="359" y="30" width="8" height="8" as="geometry" />
        </mxCell>
        <mxCell id="p3hVJLcbJUiUCccAdTZC-21" value="" style="html=1;rounded=0;labelBackgroundColor=none;" vertex="1" parent="1">
          <mxGeometry x="509" y="219" width="10" height="10" as="geometry" />
        </mxCell>
        <mxCell id="p3hVJLcbJUiUCccAdTZC-22" value="" style="endArrow=none;html=1;rounded=0;align=center;verticalAlign=top;endFill=0;labelBackgroundColor=none;endSize=2;" edge="1" parent="1" source="p3hVJLcbJUiUCccAdTZC-30">
          <mxGeometry relative="1" as="geometry">
            <mxPoint x="514" y="159" as="targetPoint" />
          </mxGeometry>
        </mxCell>
        <mxCell id="p3hVJLcbJUiUCccAdTZC-23" value="" style="group;rotation=90;labelBackgroundColor=none;" vertex="1" connectable="0" parent="1">
          <mxGeometry x="440" y="170" width="79" height="10" as="geometry" />
        </mxCell>
        <mxCell id="p3hVJLcbJUiUCccAdTZC-24" value="" style="html=1;rounded=0;direction=south;labelBackgroundColor=none;" vertex="1" parent="p3hVJLcbJUiUCccAdTZC-23">
          <mxGeometry x="69" y="-76" width="10" height="10" as="geometry" />
        </mxCell>
        <mxCell id="p3hVJLcbJUiUCccAdTZC-25" value="" style="endArrow=none;html=1;rounded=0;align=center;verticalAlign=top;endFill=0;labelBackgroundColor=none;endSize=2;" edge="1" parent="p3hVJLcbJUiUCccAdTZC-23" target="p3hVJLcbJUiUCccAdTZC-24">
          <mxGeometry relative="1" as="geometry">
            <mxPoint x="74" y="-16" as="sourcePoint" />
          </mxGeometry>
        </mxCell>
        <mxCell id="p3hVJLcbJUiUCccAdTZC-26" value="OrderableItem" style="edgeLabel;html=1;align=center;verticalAlign=middle;resizable=0;points=[];labelBackgroundColor=none;" vertex="1" connectable="0" parent="p3hVJLcbJUiUCccAdTZC-25">
          <mxGeometry x="-0.088" relative="1" as="geometry">
            <mxPoint x="-40" as="offset" />
          </mxGeometry>
        </mxCell>
        <mxCell id="p3hVJLcbJUiUCccAdTZC-27" value="" style="shape=requiredInterface;html=1;fontSize=11;align=center;fillColor=none;points=[];aspect=fixed;resizable=0;verticalAlign=bottom;labelPosition=center;verticalLabelPosition=top;flipH=1;direction=north;labelBackgroundColor=none;" vertex="1" parent="1">
          <mxGeometry x="509" y="154" width="10" height="5" as="geometry" />
        </mxCell>
        <mxCell id="p3hVJLcbJUiUCccAdTZC-28" value="" style="endArrow=none;html=1;rounded=0;align=center;verticalAlign=top;endFill=0;labelBackgroundColor=none;endSize=2;" edge="1" parent="1" source="p3hVJLcbJUiUCccAdTZC-21" target="p3hVJLcbJUiUCccAdTZC-30">
          <mxGeometry relative="1" as="geometry">
            <mxPoint x="514" y="219" as="sourcePoint" />
            <mxPoint x="514" y="159" as="targetPoint" />
          </mxGeometry>
        </mxCell>
        <mxCell id="p3hVJLcbJUiUCccAdTZC-29" value="OrderableItem" style="edgeLabel;html=1;align=center;verticalAlign=middle;resizable=0;points=[];labelBackgroundColor=none;" vertex="1" connectable="0" parent="p3hVJLcbJUiUCccAdTZC-28">
          <mxGeometry x="-0.2231" relative="1" as="geometry">
            <mxPoint x="-41" y="-6" as="offset" />
          </mxGeometry>
        </mxCell>
        <mxCell id="p3hVJLcbJUiUCccAdTZC-30" value="" style="ellipse;html=1;fontSize=11;align=center;fillColor=none;points=[];aspect=fixed;resizable=0;verticalAlign=bottom;labelPosition=center;verticalLabelPosition=top;flipH=1;labelBackgroundColor=none;" vertex="1" parent="1">
          <mxGeometry x="510" y="159" width="8" height="8" as="geometry" />
        </mxCell>
        <mxCell id="p3hVJLcbJUiUCccAdTZC-31" value="&lt;div&gt;Figure 11.8 An assembly Connector maps a simple Port of a Component to a matching simple Port of another&lt;/div&gt;&lt;div style=&quot;&quot;&gt;Component.&lt;/div&gt;" style="text;html=1;align=left;verticalAlign=middle;resizable=0;points=[];autosize=1;strokeColor=none;fillColor=none;labelBackgroundColor=none;fontStyle=1" vertex="1" parent="1">
          <mxGeometry y="313" width="650" height="40" as="geometry" />
        </mxCell>
      </root>
    </mxGraphModel>
  </diagram>
  <diagram id="IaPjDhh02IUmESatmHN7" name="11.9">
    <mxGraphModel dx="880" dy="545" grid="1" gridSize="10" guides="1" tooltips="1" connect="1" arrows="1" fold="1" page="1" pageScale="1" pageWidth="1169" pageHeight="827" math="0" shadow="0">
      <root>
        <mxCell id="0" />
        <mxCell id="1" parent="0" />
        <mxCell id="k-pVTIbAucIj1juvJ5uv-1" value="" style="rounded=0;orthogonalLoop=1;jettySize=auto;html=1;endArrow=halfCircle;endFill=0;endSize=6;strokeWidth=1;sketch=0;exitX=1;exitY=0.5;exitDx=0;exitDy=0;sourcePerimeterSpacing=0;targetPerimeterSpacing=0;" edge="1" parent="1" source="k-pVTIbAucIj1juvJ5uv-11" target="k-pVTIbAucIj1juvJ5uv-29">
          <mxGeometry relative="1" as="geometry">
            <mxPoint x="283" y="160" as="sourcePoint" />
          </mxGeometry>
        </mxCell>
        <mxCell id="k-pVTIbAucIj1juvJ5uv-2" value="Person" style="edgeLabel;html=1;align=center;verticalAlign=middle;resizable=0;points=[];" vertex="1" connectable="0" parent="k-pVTIbAucIj1juvJ5uv-1">
          <mxGeometry x="-0.3379" relative="1" as="geometry">
            <mxPoint x="4" y="14" as="offset" />
          </mxGeometry>
        </mxCell>
        <mxCell id="k-pVTIbAucIj1juvJ5uv-3" value="" style="rounded=0;orthogonalLoop=1;jettySize=auto;html=1;endArrow=oval;endFill=0;sketch=0;sourcePerimeterSpacing=0;targetPerimeterSpacing=0;endSize=10;" edge="1" parent="1" target="k-pVTIbAucIj1juvJ5uv-29">
          <mxGeometry relative="1" as="geometry">
            <mxPoint x="383" y="160" as="sourcePoint" />
          </mxGeometry>
        </mxCell>
        <mxCell id="k-pVTIbAucIj1juvJ5uv-4" value="Person" style="edgeLabel;html=1;align=center;verticalAlign=middle;resizable=0;points=[];" vertex="1" connectable="0" parent="k-pVTIbAucIj1juvJ5uv-3">
          <mxGeometry x="-0.169" relative="1" as="geometry">
            <mxPoint x="5" y="-13" as="offset" />
          </mxGeometry>
        </mxCell>
        <mxCell id="k-pVTIbAucIj1juvJ5uv-5" value="«component»&lt;br&gt;&lt;b&gt;:Customer&lt;br&gt;&lt;/b&gt;" style="html=1;dropTarget=0;whiteSpace=wrap;" vertex="1" parent="1">
          <mxGeometry x="383" y="130" width="150" height="60" as="geometry" />
        </mxCell>
        <mxCell id="k-pVTIbAucIj1juvJ5uv-6" value="" style="shape=module;jettyWidth=8;jettyHeight=4;" vertex="1" parent="k-pVTIbAucIj1juvJ5uv-5">
          <mxGeometry x="1" width="20" height="20" relative="1" as="geometry">
            <mxPoint x="-27" y="7" as="offset" />
          </mxGeometry>
        </mxCell>
        <mxCell id="k-pVTIbAucIj1juvJ5uv-7" style="edgeStyle=orthogonalEdgeStyle;rounded=0;orthogonalLoop=1;jettySize=auto;html=1;endArrow=none;endFill=0;" edge="1" parent="1" source="k-pVTIbAucIj1juvJ5uv-9">
          <mxGeometry relative="1" as="geometry">
            <mxPoint x="273" y="160" as="targetPoint" />
          </mxGeometry>
        </mxCell>
        <mxCell id="k-pVTIbAucIj1juvJ5uv-8" value="Person" style="edgeLabel;html=1;align=center;verticalAlign=middle;resizable=0;points=[];" vertex="1" connectable="0" parent="k-pVTIbAucIj1juvJ5uv-7">
          <mxGeometry x="-0.1897" y="1" relative="1" as="geometry">
            <mxPoint x="19" y="20" as="offset" />
          </mxGeometry>
        </mxCell>
        <mxCell id="k-pVTIbAucIj1juvJ5uv-9" value="«component»&lt;br&gt;&lt;b&gt;:BackOrder&lt;/b&gt;" style="html=1;dropTarget=0;whiteSpace=wrap;" vertex="1" parent="1">
          <mxGeometry x="93" width="150" height="60" as="geometry" />
        </mxCell>
        <mxCell id="k-pVTIbAucIj1juvJ5uv-10" value="" style="shape=module;jettyWidth=8;jettyHeight=4;" vertex="1" parent="k-pVTIbAucIj1juvJ5uv-9">
          <mxGeometry x="1" width="20" height="20" relative="1" as="geometry">
            <mxPoint x="-27" y="7" as="offset" />
          </mxGeometry>
        </mxCell>
        <mxCell id="k-pVTIbAucIj1juvJ5uv-11" value="«component»&lt;br&gt;&lt;b&gt;:Order&lt;/b&gt;" style="html=1;dropTarget=0;whiteSpace=wrap;" vertex="1" parent="1">
          <mxGeometry x="93" y="130" width="150" height="60" as="geometry" />
        </mxCell>
        <mxCell id="k-pVTIbAucIj1juvJ5uv-12" value="" style="shape=module;jettyWidth=8;jettyHeight=4;" vertex="1" parent="k-pVTIbAucIj1juvJ5uv-11">
          <mxGeometry x="1" width="20" height="20" relative="1" as="geometry">
            <mxPoint x="-27" y="7" as="offset" />
          </mxGeometry>
        </mxCell>
        <mxCell id="k-pVTIbAucIj1juvJ5uv-13" style="edgeStyle=orthogonalEdgeStyle;rounded=0;orthogonalLoop=1;jettySize=auto;html=1;endArrow=none;endFill=0;" edge="1" parent="1" source="k-pVTIbAucIj1juvJ5uv-15">
          <mxGeometry relative="1" as="geometry">
            <mxPoint x="343" y="160" as="targetPoint" />
          </mxGeometry>
        </mxCell>
        <mxCell id="k-pVTIbAucIj1juvJ5uv-14" value="Client" style="edgeLabel;html=1;align=center;verticalAlign=middle;resizable=0;points=[];" vertex="1" connectable="0" parent="k-pVTIbAucIj1juvJ5uv-13">
          <mxGeometry x="-0.7296" y="1" relative="1" as="geometry">
            <mxPoint x="-1" y="11" as="offset" />
          </mxGeometry>
        </mxCell>
        <mxCell id="k-pVTIbAucIj1juvJ5uv-15" value="«component»&lt;br&gt;&lt;b&gt;:Organization&lt;br&gt;&lt;/b&gt;" style="html=1;dropTarget=0;whiteSpace=wrap;" vertex="1" parent="1">
          <mxGeometry x="383" y="270" width="150" height="60" as="geometry" />
        </mxCell>
        <mxCell id="k-pVTIbAucIj1juvJ5uv-16" value="" style="shape=module;jettyWidth=8;jettyHeight=4;" vertex="1" parent="k-pVTIbAucIj1juvJ5uv-15">
          <mxGeometry x="1" width="20" height="20" relative="1" as="geometry">
            <mxPoint x="-27" y="7" as="offset" />
          </mxGeometry>
        </mxCell>
        <mxCell id="k-pVTIbAucIj1juvJ5uv-17" value="" style="group;direction=west;flipV=1;flipH=0;rotation=0;" vertex="1" connectable="0" parent="1">
          <mxGeometry x="40" y="25" width="57" height="10" as="geometry" />
        </mxCell>
        <mxCell id="k-pVTIbAucIj1juvJ5uv-18" value="" style="html=1;rounded=0;direction=west;aspect=fixed;flipH=1;flipV=1;rotation=-180;" vertex="1" parent="k-pVTIbAucIj1juvJ5uv-17">
          <mxGeometry x="48" width="12" height="12" as="geometry" />
        </mxCell>
        <mxCell id="k-pVTIbAucIj1juvJ5uv-19" value="" style="endArrow=none;html=1;rounded=0;align=center;verticalAlign=top;endFill=0;labelBackgroundColor=none;endSize=2;" edge="1" parent="k-pVTIbAucIj1juvJ5uv-17" source="k-pVTIbAucIj1juvJ5uv-18" target="k-pVTIbAucIj1juvJ5uv-20">
          <mxGeometry relative="1" as="geometry" />
        </mxCell>
        <mxCell id="k-pVTIbAucIj1juvJ5uv-20" value="OrderEntry" style="ellipse;html=1;fontSize=11;align=center;fillColor=none;points=[];aspect=fixed;resizable=0;verticalAlign=bottom;labelPosition=center;verticalLabelPosition=top;flipH=1;flipV=0;rotation=0;" vertex="1" parent="k-pVTIbAucIj1juvJ5uv-17">
          <mxGeometry y="2" width="8" height="8" as="geometry" />
        </mxCell>
        <mxCell id="k-pVTIbAucIj1juvJ5uv-21" value="" style="html=1;rounded=0;direction=west;aspect=fixed;flipH=1;flipV=1;rotation=-180;" vertex="1" parent="k-pVTIbAucIj1juvJ5uv-17">
          <mxGeometry x="198" width="12" height="12" as="geometry" />
        </mxCell>
        <mxCell id="k-pVTIbAucIj1juvJ5uv-22" value="" style="html=1;rounded=0;direction=west;aspect=fixed;flipH=1;flipV=1;rotation=-180;" vertex="1" parent="k-pVTIbAucIj1juvJ5uv-17">
          <mxGeometry x="197" y="129" width="12" height="12" as="geometry" />
        </mxCell>
        <mxCell id="k-pVTIbAucIj1juvJ5uv-23" value="" style="html=1;rounded=0;direction=west;aspect=fixed;flipH=1;flipV=1;rotation=-180;fillColor=default;" vertex="1" parent="k-pVTIbAucIj1juvJ5uv-17">
          <mxGeometry x="338" y="129" width="12" height="12" as="geometry" />
        </mxCell>
        <mxCell id="k-pVTIbAucIj1juvJ5uv-24" value="" style="html=1;rounded=0;direction=west;aspect=fixed;flipH=1;flipV=1;rotation=-180;" vertex="1" parent="k-pVTIbAucIj1juvJ5uv-17">
          <mxGeometry x="338" y="269" width="12" height="12" as="geometry" />
        </mxCell>
        <mxCell id="k-pVTIbAucIj1juvJ5uv-25" value="" style="group;direction=west;flipV=1;flipH=0;rotation=0;" vertex="1" connectable="0" parent="1">
          <mxGeometry x="40" y="154" width="57" height="10" as="geometry" />
        </mxCell>
        <mxCell id="k-pVTIbAucIj1juvJ5uv-26" value="" style="html=1;rounded=0;direction=west;aspect=fixed;flipH=1;flipV=1;rotation=-180;" vertex="1" parent="k-pVTIbAucIj1juvJ5uv-25">
          <mxGeometry x="48" width="12" height="12" as="geometry" />
        </mxCell>
        <mxCell id="k-pVTIbAucIj1juvJ5uv-27" value="" style="endArrow=none;html=1;rounded=0;align=center;verticalAlign=top;endFill=0;labelBackgroundColor=none;endSize=2;" edge="1" parent="k-pVTIbAucIj1juvJ5uv-25" source="k-pVTIbAucIj1juvJ5uv-26" target="k-pVTIbAucIj1juvJ5uv-28">
          <mxGeometry relative="1" as="geometry" />
        </mxCell>
        <mxCell id="k-pVTIbAucIj1juvJ5uv-28" value="OrderEntry" style="ellipse;html=1;fontSize=11;align=center;fillColor=none;points=[];aspect=fixed;resizable=0;verticalAlign=bottom;labelPosition=center;verticalLabelPosition=top;flipH=1;flipV=0;rotation=0;" vertex="1" parent="k-pVTIbAucIj1juvJ5uv-25">
          <mxGeometry y="2" width="8" height="8" as="geometry" />
        </mxCell>
        <mxCell id="k-pVTIbAucIj1juvJ5uv-29" value="" style="ellipse;whiteSpace=wrap;html=1;align=center;aspect=fixed;fillColor=none;strokeColor=none;resizable=0;perimeter=centerPerimeter;rotatable=0;allowArrows=0;points=[];outlineConnect=1;rotation=-180;" vertex="1" parent="1">
          <mxGeometry x="298" y="155" width="10" height="10" as="geometry" />
        </mxCell>
        <mxCell id="k-pVTIbAucIj1juvJ5uv-30" value="Note: Client interface is a subtype of Person interface" style="text;html=1;align=center;verticalAlign=middle;resizable=0;points=[];autosize=1;strokeColor=none;fillColor=none;" vertex="1" parent="1">
          <mxGeometry x="248" y="338" width="310" height="30" as="geometry" />
        </mxCell>
        <mxCell id="k-pVTIbAucIj1juvJ5uv-31" value="&lt;b&gt;Figure 11.9 An n-ary Connector that assembles four simple Ports using channeled ball-and-socket notation.&lt;/b&gt;" style="text;html=1;align=left;verticalAlign=middle;resizable=0;points=[];autosize=1;strokeColor=none;fillColor=none;fontSize=11;fontFamily=Helvetica;fontColor=default;" vertex="1" parent="1">
          <mxGeometry y="360" width="590" height="30" as="geometry" />
        </mxCell>
      </root>
    </mxGraphModel>
  </diagram>
</mxfile>
